<?xml version="1.0" encoding="UTF-8" standalone="no"?>
<!-- Created with Inkscape (http://www.inkscape.org/) -->

<svg
   width="500px"
   height="500px"
   viewBox="0 0 166.93201 166.93196"
   version="1.1"
   id="svg5"
   xml:space="preserve"
   inkscape:version="1.2 (56b05e47e7, 2022-06-09, custom)"
   sodipodi:docname="kigh.svg"
   xmlns:inkscape="http://www.inkscape.org/namespaces/inkscape"
   xmlns:sodipodi="http://sodipodi.sourceforge.net/DTD/sodipodi-0.dtd"
   xmlns:xlink="http://www.w3.org/1999/xlink"
   xmlns="http://www.w3.org/2000/svg"
   xmlns:svg="http://www.w3.org/2000/svg"><sodipodi:namedview
     id="namedview7"
     pagecolor="#ffffff"
     bordercolor="#000000"
     borderopacity="0.25"
     inkscape:showpageshadow="2"
     inkscape:pageopacity="0.0"
     inkscape:pagecheckerboard="0"
     inkscape:deskcolor="#d1d1d1"
     inkscape:document-units="mm"
     showgrid="false"
     inkscape:zoom="0.99999999"
     inkscape:cx="222"
     inkscape:cy="334.5"
     inkscape:window-width="1846"
     inkscape:window-height="1136"
     inkscape:window-x="0"
     inkscape:window-y="0"
     inkscape:window-maximized="1"
     inkscape:current-layer="svg5"><inkscape:page
       x="0"
       y="0"
       width="166.93201"
       height="166.93196"
       id="page1702"
       inkscape:export-filename="../23127a52/v1.svg"
       inkscape:export-xdpi="96"
       inkscape:export-ydpi="96" /><inkscape:page
       x="176.93201"
       y="0"
       width="246.94444"
       height="246.94444"
       id="page1704" /></sodipodi:namedview><defs
     id="defs2"><linearGradient
       inkscape:collect="always"
       id="linearGradient3139"><stop
         style="stop-color:#deeade;stop-opacity:1;"
         offset="0"
         id="stop3135" /><stop
         style="stop-color:#1a1a1a;stop-opacity:1"
         offset="1"
         id="stop3137" /></linearGradient><linearGradient
       inkscape:collect="always"
       xlink:href="#linearGradient3139"
       id="linearGradient3141"
       x1="34.175106"
       y1="30.214088"
       x2="142.94743"
       y2="90.848358"
       gradientUnits="userSpaceOnUse" /><symbol
       id="u"
       overflow="visible"><path
         d="m19.547-1.1719c-1.0117 0.52344-2.0625 0.91406-3.1562 1.1719-1.0938 0.26953-2.2344 0.40625-3.4219 0.40625-3.543 0-6.3516-0.98828-8.4219-2.9688-2.0625-1.9766-3.0938-4.6602-3.0938-8.0469 0-3.4062 1.0312-6.0977 3.0938-8.0781 2.0703-1.9766 4.8789-2.9688 8.4219-2.9688 1.1875 0 2.3281 0.13672 3.4219 0.40625 1.0938 0.26172 2.1445 0.65625 3.1562 1.1875v4.3906c-1.0234-0.6875-2.0273-1.1914-3.0156-1.5156-0.98047-0.32031-2.0156-0.48438-3.1094-0.48438-1.9609 0-3.5 0.625-4.625 1.875-1.1172 1.25-1.6719 2.9805-1.6719 5.1875 0 2.1875 0.55469 3.9141 1.6719 5.1719 1.125 1.25 2.6641 1.875 4.625 1.875 1.0938 0 2.1289-0.16016 3.1094-0.48438 0.98828-0.32031 1.9922-0.82812 3.0156-1.5156z"
         id="path1505" /></symbol><symbol
       id="d"
       overflow="visible"><path
         d="m14.297-11.609c-0.44922-0.20703-0.89062-0.35938-1.3281-0.45312-0.4375-0.10156-0.88281-0.15625-1.3281-0.15625-1.3125 0-2.3242 0.42188-3.0312 1.2656-0.71094 0.83594-1.0625 2.0391-1.0625 3.6094v7.3438h-5.0938v-15.953h5.0938v2.625c0.65625-1.0508 1.4062-1.8164 2.25-2.2969 0.85156-0.47656 1.875-0.71875 3.0625-0.71875 0.17578 0 0.36328 0.011719 0.5625 0.03125 0.19531 0.011719 0.48438 0.042969 0.85938 0.09375z"
         id="path1508" /></symbol><symbol
       id="b"
       overflow="visible"><path
         d="m18.375-8.0156v1.4531h-11.922c0.125 1.1992 0.55469 2.0938 1.2969 2.6875 0.73828 0.59375 1.7734 0.89062 3.1094 0.89062 1.0703 0 2.1719-0.15625 3.2969-0.46875 1.125-0.32031 2.2812-0.80469 3.4688-1.4531v3.9375c-1.2109 0.46094-2.418 0.80469-3.625 1.0312-1.2109 0.22656-2.4141 0.34375-3.6094 0.34375-2.8984 0-5.1484-0.72656-6.75-2.1875-1.5938-1.4688-2.3906-3.5312-2.3906-6.1875 0-2.5938 0.78516-4.6328 2.3594-6.125 1.5703-1.5 3.7344-2.25 6.4844-2.25 2.5078 0 4.5156 0.75781 6.0156 2.2656 1.5078 1.5117 2.2656 3.5312 2.2656 6.0625zm-5.2344-1.7031c0-0.96875-0.28906-1.75-0.85938-2.3438-0.5625-0.59375-1.2969-0.89062-2.2031-0.89062-0.99219 0-1.7969 0.28125-2.4219 0.84375-0.61719 0.55469-0.99609 1.3516-1.1406 2.3906z"
         id="path1511" /></symbol><symbol
       id="l"
       overflow="visible"><path
         d="m9.5938-7.1719c-1.0625 0-1.8672 0.18359-2.4062 0.54688-0.53125 0.35547-0.79688 0.88281-0.79688 1.5781 0 0.64844 0.21094 1.1523 0.64062 1.5156 0.4375 0.36719 1.0391 0.54688 1.8125 0.54688 0.95703 0 1.7656-0.34375 2.4219-1.0312s0.98438-1.5469 0.98438-2.5781v-0.57812zm7.7969-1.9375v9.1094h-5.1406v-2.3594c-0.6875 0.96875-1.4609 1.6719-2.3125 2.1094-0.85547 0.4375-1.8906 0.65625-3.1094 0.65625-1.6562 0-3-0.47656-4.0312-1.4375-1.0312-0.96875-1.5469-2.2188-1.5469-3.75 0-1.875 0.64062-3.25 1.9219-4.125 1.2891-0.875 3.3164-1.3125 6.0781-1.3125h3v-0.39062c0-0.8125-0.32031-1.4062-0.95312-1.7812-0.63672-0.375-1.6328-0.5625-2.9844-0.5625-1.0859 0-2.1016 0.10938-3.0469 0.32812-0.9375 0.21875-1.8086 0.54688-2.6094 0.98438v-3.8906c1.082-0.25781 2.1758-0.45703 3.2812-0.59375 1.1016-0.14453 2.207-0.21875 3.3125-0.21875 2.875 0 4.9453 0.57031 6.2188 1.7031 1.2812 1.1367 1.9219 2.9805 1.9219 5.5312z"
         id="path1514" /></symbol><symbol
       id="c"
       overflow="visible"><path
         d="m8.0156-20.484v4.5312h5.2656v3.6406h-5.2656v6.7656c0 0.74219 0.14453 1.2461 0.4375 1.5156 0.30078 0.26172 0.89062 0.39062 1.7656 0.39062h2.6094v3.6406h-4.3594c-2.0234 0-3.4531-0.41406-4.2969-1.25-0.83594-0.84375-1.25-2.2734-1.25-4.2969v-6.7656h-2.5312v-3.6406h2.5312v-4.5312z"
         id="path1517" /></symbol><symbol
       id="i"
       overflow="visible"><path
         d="m13.297-13.625v-8.5312h5.1406v22.156h-5.1406v-2.3125c-0.69922 0.94922-1.4688 1.6406-2.3125 2.0781-0.84375 0.42578-1.8242 0.64062-2.9375 0.64062-1.9688 0-3.5859-0.77344-4.8438-2.3281-1.2617-1.5625-1.8906-3.5781-1.8906-6.0469 0-2.457 0.62891-4.4688 1.8906-6.0312 1.2578-1.5625 2.875-2.3438 4.8438-2.3438 1.1016 0 2.0781 0.22656 2.9219 0.67188 0.85156 0.4375 1.6289 1.1211 2.3281 2.0469zm-3.3594 10.328c1.0938 0 1.9258-0.39453 2.5-1.1875 0.57031-0.80078 0.85938-1.9609 0.85938-3.4844 0-1.5078-0.28906-2.6641-0.85938-3.4688-0.57422-0.80078-1.4062-1.2031-2.5-1.2031-1.0859 0-1.9141 0.40234-2.4844 1.2031-0.57422 0.80469-0.85938 1.9609-0.85938 3.4688 0 1.5234 0.28516 2.6836 0.85938 3.4844 0.57031 0.79297 1.3984 1.1875 2.4844 1.1875z"
         id="path1520" /></symbol><symbol
       id="k"
       overflow="visible"><path
         d="m10.938-3.2969c1.0938 0 1.9258-0.39453 2.5-1.1875 0.57031-0.80078 0.85938-1.9609 0.85938-3.4844 0-1.5078-0.28906-2.6641-0.85938-3.4688-0.57422-0.80078-1.4062-1.2031-2.5-1.2031s-1.9336 0.40234-2.5156 1.2031c-0.58594 0.80469-0.875 1.9609-0.875 3.4688 0 1.5117 0.28906 2.668 0.875 3.4688 0.58203 0.80469 1.4219 1.2031 2.5156 1.2031zm-3.3906-10.328c0.70703-0.92578 1.4883-1.6094 2.3438-2.0469 0.85156-0.44531 1.832-0.67188 2.9375-0.67188 1.9688 0 3.582 0.78125 4.8438 2.3438 1.2695 1.5625 1.9062 3.5742 1.9062 6.0312 0 2.4688-0.63672 4.4844-1.9062 6.0469-1.2617 1.5547-2.875 2.3281-4.8438 2.3281-1.1055 0-2.0859-0.21875-2.9375-0.65625-0.85547-0.4375-1.6367-1.125-2.3438-2.0625v2.3125h-5.0938v-22.156h5.0938z"
         id="path1523" /></symbol><symbol
       id="j"
       overflow="visible"><path
         d="m0.35938-15.953h5.0938l4.2969 10.828 3.6406-10.828h5.0938l-6.7031 17.469c-0.67969 1.7695-1.4648 3.0078-2.3594 3.7188-0.89844 0.70703-2.0781 1.0625-3.5469 1.0625h-2.9531v-3.3438h1.5938c0.86328 0 1.4922-0.14062 1.8906-0.42188 0.39453-0.27344 0.70312-0.76562 0.92188-1.4844l0.14062-0.4375z"
         id="path1526" /></symbol><symbol
       id="h"
       overflow="visible"><path
         d="m2.4531-15.953h5.0938v15.953h-5.0938zm0-6.2031h5.0938v4.1562h-5.0938z"
         id="path1529" /></symbol><symbol
       id="g"
       overflow="visible"><path
         d="m15.344-15.453v4.1562c-0.69922-0.46875-1.3984-0.81641-2.0938-1.0469-0.69922-0.22656-1.4219-0.34375-2.1719-0.34375-1.4297 0-2.5391 0.41797-3.3281 1.25-0.79297 0.82422-1.1875 1.9805-1.1875 3.4688 0 1.5 0.39453 2.668 1.1875 3.5 0.78906 0.82422 1.8984 1.2344 3.3281 1.2344 0.80078 0 1.5547-0.11719 2.2656-0.35938 0.71875-0.23828 1.3828-0.58594 2-1.0469v4.1719c-0.80469 0.29297-1.6172 0.50781-2.4375 0.65625-0.8125 0.14453-1.6367 0.21875-2.4688 0.21875-2.875 0-5.125-0.73438-6.75-2.2031-1.625-1.4766-2.4375-3.5352-2.4375-6.1719 0-2.625 0.8125-4.6758 2.4375-6.1562 1.625-1.4766 3.875-2.2188 6.75-2.2188 0.83203 0 1.6562 0.078125 2.4688 0.23438 0.8125 0.14844 1.625 0.36719 2.4375 0.65625z"
         id="path1532" /></symbol><symbol
       id="a"
       overflow="visible"><path
         d="m10.047-12.688c-1.1367 0-2 0.40625-2.5938 1.2188s-0.89062 1.9805-0.89062 3.5c0 1.5312 0.29688 2.7031 0.89062 3.5156s1.457 1.2188 2.5938 1.2188c1.1016 0 1.9453-0.40625 2.5312-1.2188 0.59375-0.8125 0.89062-1.9844 0.89062-3.5156 0-1.5195-0.29688-2.6875-0.89062-3.5-0.58594-0.8125-1.4297-1.2188-2.5312-1.2188zm0-3.6562c2.7383 0 4.8789 0.74609 6.4219 2.2344 1.5391 1.4805 2.3125 3.5273 2.3125 6.1406 0 2.625-0.77344 4.6797-2.3125 6.1562-1.543 1.4805-3.6836 2.2188-6.4219 2.2188-2.7617 0-4.918-0.73828-6.4688-2.2188-1.5547-1.4766-2.3281-3.5312-2.3281-6.1562 0-2.6133 0.77344-4.6602 2.3281-6.1406 1.5508-1.4883 3.707-2.2344 6.4688-2.2344z"
         id="path1535" /></symbol><symbol
       id="f"
       overflow="visible"><path
         d="m18.484-9.7188v9.7188h-5.125v-7.4375c0-1.375-0.03125-2.3203-0.09375-2.8438-0.0625-0.51953-0.16797-0.90625-0.3125-1.1562-0.19922-0.33203-0.46875-0.58594-0.8125-0.76562-0.34375-0.1875-0.73438-0.28125-1.1719-0.28125-1.0625 0-1.9023 0.41406-2.5156 1.2344-0.60547 0.8125-0.90625 1.9492-0.90625 3.4062v7.8438h-5.0938v-15.953h5.0938v2.3281c0.76953-0.92578 1.5859-1.6094 2.4531-2.0469 0.86328-0.44531 1.8164-0.67188 2.8594-0.67188 1.8438 0 3.2383 0.57031 4.1875 1.7031 0.95703 1.125 1.4375 2.7656 1.4375 4.9219z"
         id="path1538" /></symbol><symbol
       id="t"
       overflow="visible"><path
         d="m14.906-15.453v3.875c-1.0859-0.45703-2.1367-0.80078-3.1562-1.0312-1.0117-0.22656-1.9688-0.34375-2.875-0.34375-0.96875 0-1.6875 0.125-2.1562 0.375-0.46875 0.24219-0.70312 0.60938-0.70312 1.1094 0 0.40625 0.17578 0.71875 0.53125 0.9375 0.35156 0.21875 0.99219 0.38281 1.9219 0.48438l0.89062 0.14062c2.6133 0.32422 4.3672 0.86719 5.2656 1.625 0.90625 0.76172 1.3594 1.9531 1.3594 3.5781 0 1.6992-0.63281 2.9766-1.8906 3.8281-1.25 0.85547-3.1211 1.2812-5.6094 1.2812-1.0547 0-2.1406-0.085938-3.2656-0.25-1.125-0.15625-2.2812-0.39844-3.4688-0.73438v-3.875c1.0195 0.49219 2.0625 0.85938 3.125 1.1094 1.0703 0.24219 2.1602 0.35938 3.2656 0.35938 0.98828 0 1.7344-0.13281 2.2344-0.40625 0.50781-0.26953 0.76562-0.67578 0.76562-1.2188 0-0.45703-0.17969-0.79688-0.53125-1.0156-0.34375-0.22656-1.0312-0.40625-2.0625-0.53125l-0.89062-0.10938c-2.2734-0.28125-3.8672-0.80469-4.7812-1.5781-0.90625-0.76953-1.3594-1.9414-1.3594-3.5156 0-1.6875 0.57812-2.9375 1.7344-3.75 1.1562-0.82031 2.9297-1.2344 5.3281-1.2344 0.9375 0 1.9219 0.074219 2.9531 0.21875 1.0391 0.14844 2.1641 0.37109 3.375 0.67188z"
         id="path1541" /></symbol><symbol
       id="e"
       overflow="visible"><path
         d="m17.234-13.297c0.64453-0.98828 1.4102-1.7422 2.2969-2.2656 0.89453-0.51953 1.875-0.78125 2.9375-0.78125 1.832 0 3.2266 0.57031 4.1875 1.7031 0.95703 1.125 1.4375 2.7656 1.4375 4.9219v9.7188h-5.125v-8.3125-0.39062c0.007812-0.13281 0.015625-0.32031 0.015625-0.5625 0-1.1328-0.16797-1.9531-0.5-2.4531-0.32422-0.50781-0.85938-0.76562-1.6094-0.76562-0.96875 0-1.7188 0.40234-2.25 1.2031-0.52344 0.79297-0.79297 1.9453-0.8125 3.4531v7.8281h-5.125v-8.3125c0-1.7695-0.15234-2.9062-0.45312-3.4062-0.30469-0.50781-0.84375-0.76562-1.625-0.76562-0.98047 0-1.7344 0.40234-2.2656 1.2031-0.53125 0.80469-0.79688 1.9492-0.79688 3.4375v7.8438h-5.125v-15.953h5.125v2.3281c0.625-0.89453 1.3438-1.5703 2.1562-2.0312 0.8125-0.45703 1.707-0.6875 2.6875-0.6875 1.1016 0 2.0781 0.26562 2.9219 0.79688s1.4844 1.2812 1.9219 2.25z"
         id="path1544" /></symbol><symbol
       id="s"
       overflow="visible"><path
         d="m2.9844-5.5156h5.125v5.5156h-5.125z"
         id="path1547" /></symbol><symbol
       id="r"
       overflow="visible"><path
         d="m12.953-22.156v3.3438h-2.8281c-0.71875 0-1.2266 0.13281-1.5156 0.39062-0.28125 0.26172-0.42188 0.71484-0.42188 1.3594v1.1094h4.3594v3.6406h-4.3594v12.312h-5.0938v-12.312h-2.5312v-3.6406h2.5312v-1.1094c0-1.7383 0.48438-3.0195 1.4531-3.8438 0.96875-0.83203 2.4688-1.25 4.5-1.25z"
         id="path1550" /></symbol><symbol
       id="q"
       overflow="visible"><path
         d="m18.484-9.7188v9.7188h-5.125v-7.4062c0-1.3945-0.03125-2.3516-0.09375-2.875-0.0625-0.51953-0.16797-0.90625-0.3125-1.1562-0.19922-0.33203-0.46875-0.58594-0.8125-0.76562-0.34375-0.1875-0.73438-0.28125-1.1719-0.28125-1.0625 0-1.9023 0.41406-2.5156 1.2344-0.60547 0.8125-0.90625 1.9492-0.90625 3.4062v7.8438h-5.0938v-22.156h5.0938v8.5312c0.76953-0.92578 1.5859-1.6094 2.4531-2.0469 0.86328-0.44531 1.8164-0.67188 2.8594-0.67188 1.8438 0 3.2383 0.57031 4.1875 1.7031 0.95703 1.125 1.4375 2.7656 1.4375 4.9219z"
         id="path1553" /></symbol><symbol
       id="p"
       overflow="visible"><path
         d="m2.6719-21.266h6.125l7.7344 14.578v-14.578h5.2031v21.266h-6.125l-7.7344-14.594v14.594h-5.2031z"
         id="path1556" /></symbol><symbol
       id="o"
       overflow="visible"><path
         d="m2.2812-6.2031v-9.75h5.125v1.5938c0 0.86719-0.007812 1.9531-0.015625 3.2656-0.011719 1.3047-0.015625 2.1719-0.015625 2.6094 0 1.2812 0.03125 2.2031 0.09375 2.7656 0.070312 0.5625 0.1875 0.97656 0.34375 1.2344 0.21875 0.33594 0.49219 0.58984 0.82812 0.76562 0.33203 0.17969 0.71875 0.26562 1.1562 0.26562 1.0625 0 1.8945-0.40625 2.5-1.2188 0.61328-0.8125 0.92188-1.9453 0.92188-3.4062v-7.875h5.0938v15.953h-5.0938v-2.3125c-0.77344 0.9375-1.5898 1.625-2.4531 2.0625-0.85547 0.4375-1.7969 0.65625-2.8281 0.65625-1.8438 0-3.25-0.5625-4.2188-1.6875-0.96094-1.1328-1.4375-2.7734-1.4375-4.9219z"
         id="path1559" /></symbol><symbol
       id="n"
       overflow="visible"><path
         d="m2.6719-21.266h9.1094c2.707 0 4.7852 0.60547 6.2344 1.8125 1.4453 1.1992 2.1719 2.9062 2.1719 5.125 0 2.2305-0.72656 3.9492-2.1719 5.1562-1.4492 1.1992-3.5273 1.7969-6.2344 1.7969h-3.625v7.375h-5.4844zm5.4844 3.9688v5.9375h3.0469c1.0625 0 1.8789-0.25391 2.4531-0.76562 0.58203-0.51953 0.875-1.2539 0.875-2.2031 0-0.94531-0.29297-1.6758-0.875-2.1875-0.57422-0.51953-1.3906-0.78125-2.4531-0.78125z"
         id="path1562" /></symbol><symbol
       id="m"
       overflow="visible"><path
         d="m2.4531-15.953h5.0938v15.672c0 2.1328-0.51562 3.7656-1.5469 4.8906-1.0234 1.125-2.5078 1.6875-4.4531 1.6875h-2.5156v-3.3438h0.89062c0.96875 0 1.6289-0.21875 1.9844-0.65625 0.36328-0.4375 0.54688-1.2969 0.54688-2.5781zm0-6.2031h5.0938v4.1562h-5.0938z"
         id="path1565" /></symbol></defs><g
     id="g2592"
     style="display:inline"
     sodipodi:insensitive="true"><g
       inkscape:groupmode="layer"
       id="layer3"
       inkscape:label="bg"
       style="display:inline;fill:url(#linearGradient3141);fill-opacity:1"
       transform="matrix(2.4264145,0,0,3.0425344,-172.93213,-112.76699)"><rect
         style="display:inline;fill:#deeade;fill-opacity:1;stroke:none;stroke-width:0.264732;stroke-opacity:1"
         id="rect3195"
         width="68.797539"
         height="54.866081"
         x="71.268555"
         y="37.064465" /></g><rect
       style="fill:none;fill-opacity:1;stroke:#012d78;stroke-width:1.80936;stroke-miterlimit:4;stroke-dasharray:none;stroke-opacity:1;paint-order:normal"
       id="rect3251"
       width="80.596741"
       height="116.39565"
       x="43.114182"
       y="25.2089"
       inkscape:label="borders" /><text
       xml:space="preserve"
       style="font-style:normal;font-variant:normal;font-weight:normal;font-stretch:normal;font-size:29.5413px;line-height:0;font-family:'Abril Fatface';-inkscape-font-specification:'Abril Fatface, Normal';font-variant-ligatures:normal;font-variant-caps:normal;font-variant-numeric:normal;font-variant-east-asian:normal;display:inline;fill:#012d78;fill-opacity:1;stroke:#012d78;stroke-width:0;stroke-miterlimit:4;stroke-dasharray:none;stroke-opacity:1;paint-order:normal"
       x="52.886395"
       y="115.98633"
       id="text4242"
       inkscape:label="text4242"><tspan
         sodipodi:role="line"
         id="tspan4240"
         style="font-style:normal;font-variant:normal;font-weight:normal;font-stretch:normal;font-size:29.5413px;font-family:'Abril Fatface';-inkscape-font-specification:'Abril Fatface, Normal';font-variant-ligatures:normal;font-variant-caps:normal;font-variant-numeric:normal;font-variant-east-asian:normal;fill:#012d78;fill-opacity:1;stroke-width:0;stroke-dasharray:none"
         x="52.886395"
         y="115.98633">kigh</tspan></text><g
       id="g1652"
       transform="matrix(0.07585335,0,0,0.07585335,56.878029,41.96745)"
       style="display:inline;fill:#012d78;fill-opacity:1;stroke-width:1.00193;stroke-dasharray:none"><path
         d="M 614.25,95.176 C 597.543,72.637 558.18,73.918 508.46,90.4377 c -42.258,-34.602 -96.227,-55.441 -155,-55.441 -135.1,0 -245,109.9 -245,245 0,30.848 5.9727,60.293 16.426,87.523 -38.617,49.352 -57.051,93.285 -38.312,118.62 8.5391,11.48 23.031,17.266 43.168,17.266 4.1289,0 8.4922,-0.23438 13.113,-0.72266 6.3945,-0.67578 11.059,-6.418 10.359,-12.832 -0.69922,-6.418 -6.2773,-11.035 -12.832,-10.359 -17.734,1.7969 -30.191,-0.69922 -35.07,-7.2812 -8.7734,-11.852 1.5391,-41.207 30.379,-80.477 40.691,79.008 122.94,133.26 217.77,133.26 135.1,0 245,-109.9 245,-245 0,-66.641 -26.832,-127.1 -70.164,-171.31 35.629,-10.219 59.664,-9.8008 67.199,0.375 5.6016,7.582 2.332,21.07 -1.4219,31.059 -2.2852,6.0195 0.79297,12.738 6.8125,15.027 6.0898,2.2148 12.762,-0.76953 15.027,-6.8359 8.3984,-22.398 7.8398,-40.25 -1.6562,-53.129 z m -81.176,55.465 c 24.172,33.484 39.152,73.875 41.441,117.65 h -93.426 c -1.5625,-41.207 -11.105,-80.875 -27.441,-116.67 h 74.785 c 1.6562,0 3.2422,-0.375 4.6445,-0.98047 z m 0.0469,258.65 c -1.4453,-0.60547 -3.0117,-1.0039 -4.668,-1.0039 h -74.645 c 16.262,-35.816 25.785,-75.461 27.301,-116.67 h 93.426 c -2.2852,43.797 -17.242,84.188 -41.418,117.67 z m -179.67,88.086 c -24.266,-17.5 -45.07799,-39.809 -61.57799,-65.754 h 123.11 c -16.473,25.945 -37.285,48.254 -61.531,65.754 z m -75.086,-89.09 c -17.641,-35.164 -27.625,-75.18 -29.285,-116.67 h 208.69 c -1.6562,41.488 -11.645,81.504 -29.285,116.67 z m -104.56,-257.64 c 1.4219,0.60547 2.9883,0.98047 4.6445,0.98047 h 74.762 c -15.773,34.535 -25.129,72.707 -27.184,112.35 -1.6562,1.4453 -3.3594,2.8477 -5.0156,4.3164 h -88.645 c 2.3086,-43.773 17.289,-84.164 41.441,-117.65 z m 179.64,-87.805 c 24.148,17.43 44.918,39.621 61.391,65.449 h -122.8 c 16.473,-25.809 37.238,-48.02 61.414,-65.449 z m 74.898,88.785 c 17.688,35.141 27.719,75.156 29.422,116.67 h -200.92 c 15.145,-12.555 31.31201,-25.316 48.695,-38.195 44.14801,-32.715 85.422,-58.566 122.41001,-78.469 h 0.39844 z m -47.133,0 c -30.191,18.012 -60.621,38.242 -89.602,59.711 -13.789,10.219 -27.371,20.883 -40.691,31.734 4.1523,-32.434 13.535,-63.465 27.602,-91.441 h 102.69 z m 7.8164,-90.16 c 34.488,5.6016 66.242,19.086 93.473,38.664 -14.559,5.8789 -29.68,12.762 -45.219,20.559 -13.488,-22.098 -29.539,-42.188 -48.254,-59.219 z m -71.188,0 c -20.836,18.969 -38.383,41.695 -52.664,66.828 h -72.895 c 32.691,-34.742 76.395,-58.824 125.56,-66.828 z m -185.48,230.16 h 63.047 c -19.555,18.41 -37.637,36.961 -53.363,55.043 -5.5312,-17.5 -8.7031,-36.004 -9.6836,-55.043 z m 93.59,3.2891 c 1.8906,40.016 11.27,78.516 27.113,113.38 h -74.621 c -1.6797,0 -3.2656,0.39844 -4.6914,1.0039 -8.5625,-11.875 -16.008,-24.594 -22.098,-38.059 19.18,-23.215 43.914,-49.023 74.293,-76.324 z m -33.766,136.71 h 72.824 c 14.258,25.129 31.781,47.902 52.57,66.875 -49.094,-8.0273 -92.727,-32.152 -125.39,-66.875 z m 197.1,66.871 c 20.789,-18.969 38.312,-41.742 52.57,-66.875 h 72.848 c -32.668,34.719 -76.301,58.848 -125.42,66.875 z m 125.32,-370.21 h -39.27 c 9.707,-4.293 18.992,-8.0977 27.742,-11.34 3.9883,3.6641 7.83981,7.4219 11.527,11.34 z"
         id="path1570"
         style="fill:#012d78;fill-opacity:1;stroke-width:1.00193;stroke-dasharray:none" /></g></g></svg>
